<svg width="24" height="24" viewBox="0 0 24 24" fill="none" xmlns="http://www.w3.org/2000/svg">
<path fill-rule="evenodd" clip-rule="evenodd" d="M8.4 3H15.6C18.57 3 21 5.43 21 8.4V15.6C21 18.57 18.57 21 15.6 21H8.4C5.43 21 3 18.57 3 15.6V8.4C3 5.43 5.43 3 8.4 3ZM15.6 19.29C17.58 19.29 19.29 17.67 19.29 15.6V8.4C19.29 6.42 17.67 4.71 15.6 4.71H8.4C6.42 4.71 4.71 6.33 4.71 8.4V15.6C4.71 17.58 6.33 19.29 8.4 19.29H15.6ZM16.77 6.33002C16.23 6.33002 15.69 6.78002 15.69 7.41002C15.69 8.04002 16.14 8.49002 16.77 8.49002C17.4 8.49002 17.85 8.04002 17.85 7.41002C17.76 6.78002 17.31 6.33002 16.77 6.33002ZM12 7.67999C9.57 7.67999 7.59 9.65999 7.59 12.09C7.59 14.52 9.57 16.5 12 16.5C14.43 16.5 16.41 14.52 16.41 12.09C16.5 9.65999 14.52 7.67999 12 7.67999ZM12 14.97C10.47 14.97 9.12 13.71 9.12 12.09C9.12 10.56 10.38 9.20999 12 9.20999C13.53 9.20999 14.88 10.47 14.88 12.09C14.88 13.71 13.62 14.97 12 14.97Z" fill="white"/>
</svg>
