<svg width="24" height="24" viewBox="0 0 24 24" fill="none" xmlns="http://www.w3.org/2000/svg">
<path d="M20.3905 8.90951C20.3905 5.00434 17.8318 3.86042 17.8318 3.86042C16.542 3.26821 14.3271 3.0189 12.0257 3H11.969C9.6677 3.0189 7.45456 3.26821 6.16393 3.86042C6.16393 3.86042 3.60519 5.00524 3.60519 8.90951C3.60519 9.80323 3.58808 10.8725 3.61599 12.0065C3.70869 15.8252 4.3162 19.5891 7.84697 20.5233C9.4751 20.9544 10.8728 21.0444 11.9978 20.9823C14.0391 20.8689 15.1848 20.2542 15.1848 20.2542L15.1173 18.7728C15.1173 18.7728 13.6584 19.2327 12.0203 19.1769C10.3967 19.1211 8.68398 19.0023 8.42118 17.0088C8.39636 16.8235 8.38433 16.6368 8.38518 16.4499C8.38518 16.4499 9.97821 16.8396 11.9978 16.9323C13.2327 16.989 14.3901 16.8603 15.5664 16.7199C17.8219 16.4508 19.7857 15.0611 20.0323 13.7912C20.4229 11.7905 20.3905 8.90951 20.3905 8.90951ZM17.3728 13.9406H15.4998V9.35142C15.4998 8.3839 15.093 7.89339 14.2785 7.89339C13.3785 7.89339 12.9276 8.47571 12.9276 9.62773V12.1397H11.0654V9.62773C11.0654 8.47571 10.6145 7.89339 9.7136 7.89339C8.89909 7.89339 8.49228 8.3848 8.49228 9.35142V13.9406H6.61934V9.21282C6.61934 8.2462 6.86505 7.47849 7.36006 6.91058C7.86947 6.34266 8.53638 6.05106 9.3653 6.05106C10.3238 6.05106 11.0501 6.41917 11.5298 7.15628L11.996 7.9384L12.4632 7.15628C12.9429 6.41917 13.6692 6.05106 14.6277 6.05106C15.4557 6.05106 16.1235 6.34266 16.6329 6.91058C17.127 7.47849 17.3728 8.2462 17.3728 9.21282V13.9406Z" fill="white"/>
</svg>
