<svg width="18" height="18" viewBox="0 0 18 18" fill="none" xmlns="http://www.w3.org/2000/svg">
<path fill-rule="evenodd" clip-rule="evenodd" d="M5.25 7.75C6.63071 7.75 7.75 6.63071 7.75 5.25C7.75 3.86929 6.63071 2.75 5.25 2.75C3.86929 2.75 2.75 3.86929 2.75 5.25C2.75 6.63071 3.86929 7.75 5.25 7.75ZM5.25 15.25C6.63071 15.25 7.75 14.1307 7.75 12.75C7.75 11.3693 6.63071 10.25 5.25 10.25C3.86929 10.25 2.75 11.3693 2.75 12.75C2.75 14.1307 3.86929 15.25 5.25 15.25ZM15.25 5.25C15.25 6.63071 14.1307 7.75 12.75 7.75C11.3693 7.75 10.25 6.63071 10.25 5.25C10.25 3.86929 11.3693 2.75 12.75 2.75C14.1307 2.75 15.25 3.86929 15.25 5.25ZM12.75 15.25C14.1307 15.25 15.25 14.1307 15.25 12.75C15.25 11.3693 14.1307 10.25 12.75 10.25C11.3693 10.25 10.25 11.3693 10.25 12.75C10.25 14.1307 11.3693 15.25 12.75 15.25Z" fill="black"/>
</svg>
