<svg width="24" height="24" viewBox="0 0 24 24" fill="none" xmlns="http://www.w3.org/2000/svg">
<path d="M20.2 10.3998C18.5442 10.3998 17.0092 9.88679 15.7568 9.01525V15.3043C15.7568 18.4454 13.1195 21 9.87838 21C8.62592 21 7.46402 20.6175 6.50958 19.968C4.99392 18.9367 4 17.2311 4 15.3043C4 12.1631 6.6373 9.60778 9.87916 9.60778C10.1485 9.60778 10.4117 9.62953 10.671 9.66328V10.3961V12.8224C10.4202 12.7467 10.1555 12.7024 9.87916 12.7024C8.39911 12.7024 7.19464 13.8695 7.19464 15.3043C7.19464 16.3033 7.77985 17.1711 8.63443 17.6069C9.00677 17.7966 9.43019 17.9054 9.87993 17.9054C11.3259 17.9054 12.5056 16.7908 12.5598 15.4018L12.5621 3H15.756C15.756 3.26851 15.7831 3.53027 15.8311 3.78528C16.0563 4.96433 16.7786 5.97612 17.7794 6.6084C18.4761 7.04867 19.3075 7.30593 20.1992 7.30593V10.3998H20.2Z" fill="white"/>
</svg>
