<svg width="24" height="24" viewBox="0 0 24 24" fill="none" xmlns="http://www.w3.org/2000/svg">
<path d="M4.02739 3H19.9726C20.5131 3 21 3.48688 21 4.02739V19.9726C21 20.5131 20.5131 21 19.9726 21H4.02739C3.48688 21 3 20.5131 3 19.9726V4.02739C3 3.48688 3.48688 3 4.02739 3ZM15.7826 13.1069H18.269L18.3771 10.7287H15.7826V8.97233C15.7826 8.29692 15.9176 7.91813 16.7824 7.91813H18.2958L18.3502 5.70164C18.3502 5.70164 17.6748 5.59354 16.7019 5.59354C14.3237 5.59354 13.2695 7.08014 13.2695 8.67483V10.7287H11.5131V13.1069H13.2695V19.7011H15.7826V13.1069Z" fill="black"/>
</svg>
