<svg width="24" height="24" viewBox="0 0 24 24" fill="none" xmlns="http://www.w3.org/2000/svg">
<path fill-rule="evenodd" clip-rule="evenodd" d="M4.2817 3H19.7143C20.4214 3 21 3.58259 21 4.29777V19.7022C21 20.4174 20.4214 21 19.7143 21H4.2817C3.57455 21 3 20.4174 3 19.7022V4.29777C3 3.58259 3.57455 3 4.2817 3ZM5.77418 18.4288H8.44203H8.44605V9.83867H5.77418V18.4288ZM7.10539 8.66449C6.24959 8.66449 5.55851 7.9694 5.55851 7.11761C5.55851 6.26583 6.24959 5.57074 7.10539 5.57074C7.95717 5.57074 8.65226 6.26583 8.65226 7.11761C8.65226 7.97341 7.96119 8.66449 7.10539 8.66449ZM15.7739 18.4286H18.4418V13.7197C18.4418 11.4054 17.9396 9.62547 15.2396 9.62547C13.9418 9.62547 13.0699 10.3366 12.7123 11.0116H12.6762V9.83841H10.1168V18.4286H12.7847V14.1777C12.7847 13.0567 12.9976 11.9719 14.3878 11.9719C15.7539 11.9719 15.7739 13.2536 15.7739 14.25V18.4286Z" fill="white"/>
</svg>
