<svg width="145" height="34" viewBox="0 0 145 34" fill="none" xmlns="http://www.w3.org/2000/svg">
<path d="M20.5832 33.484H0.579814C-0.00849394 32.0928 -0.1801 30.3625 0.208877 28.2448L0.712399 25.5257L9.57439 23.9145L8.76875 28.3958C8.26523 31.1148 9.42333 31.9708 10.8835 31.9708C12.7466 31.9708 13.099 30.561 13.3508 29.1511L13.6026 27.6909C13.9047 25.9789 13.804 24.9215 12.092 23.8641L6.90572 20.6919C3.17966 18.4261 2.77684 14.4483 3.38107 11.6285L3.98529 8.7081C4.84128 4.57921 7.25819 0.853149 15.0124 0.853149C20.4505 0.853149 26.2913 2.66583 25.1836 10.269L24.7808 12.988L16.1202 14.4986L16.8251 10.6718C17.3286 8.00317 16.4223 6.99612 14.8614 6.99612C13.099 6.99612 12.4948 8.30528 12.2431 9.51373L11.9913 10.7222C11.6892 12.1824 11.9913 13.6426 13.5522 14.5993L18.7888 17.7715C22.1121 19.7856 22.9681 23.0585 22.5149 25.7271L21.8603 29.4532C21.603 30.891 21.2184 32.2652 20.5832 33.484Z" fill="white"/>
<path fill-rule="evenodd" clip-rule="evenodd" d="M32.3006 33.484H23.901L29.4952 1.70913H39.3139C45.5575 1.70913 50.6431 3.62252 49.5354 12.0313L49.2332 14.2972C48.5283 19.5842 46.0107 24.418 37.5515 24.418H33.8758L32.3006 33.484ZM40.472 13.9951L40.9251 11.4271C41.479 8.40598 40.0691 7.34858 38.4075 7.34858H36.8969L34.9332 18.6275H36.9977C39.3139 18.6275 39.9684 16.8652 40.472 13.9951Z" fill="white"/>
<path fill-rule="evenodd" clip-rule="evenodd" d="M70.0042 33.484H49.4051C48.5768 31.6487 48.3517 29.2085 48.936 26.0293L51.655 11.0747C52.7124 5.28415 55.5321 0.853149 64.092 0.853149C71.091 0.853149 76.3276 3.82393 74.6156 13.1391L71.8966 28.0937C71.5311 30.0952 70.9551 31.9342 70.0042 33.484ZM63.3367 27.6405C62.9339 29.9064 62.38 31.8701 59.8121 31.8701C58.0497 31.8701 56.7406 30.9638 57.3448 27.6405L60.2149 11.5278C60.6177 9.26197 61.1716 7.29823 63.7395 7.29823C65.5019 7.29823 66.811 8.20457 66.2068 11.5278L63.3367 27.6405Z" fill="white"/>
<path fill-rule="evenodd" clip-rule="evenodd" d="M82.7417 33.484H74.3279L79.9221 1.70913H89.3883C96.5384 1.70913 101.322 3.92463 99.9623 11.6285L99.6098 13.5923C98.9553 17.2176 97.7972 19.987 94.3229 21.4472L95.7234 33.484H87.4376L86.8204 23.2095L86.77 23.2599H84.5545L82.7417 33.484ZM87.3743 7.29823L85.4609 18.124H86.77C89.3883 18.124 90.3954 16.7141 90.9493 13.6426L91.4024 11.125C91.906 8.20457 90.7479 7.29823 88.8345 7.29823H87.3743Z" fill="white"/>
<path d="M111.646 33.484H103.287L107.669 8.75844H100.972L102.23 1.70913H123.983L122.724 8.75844H116.027L111.646 33.484Z" fill="white"/>
<path d="M140.16 33.484H120.156C119.568 32.0928 119.396 30.3625 119.785 28.2448L120.289 25.5257L129.151 23.9145L128.345 28.3958C127.842 31.1148 129 31.9708 130.46 31.9708C132.323 31.9708 132.676 30.561 132.927 29.1511L133.179 27.6909C133.481 25.9789 133.38 24.9215 131.669 23.8641L126.482 20.6919C122.756 18.4261 122.353 14.4483 122.958 11.6285L123.562 8.7081C124.418 4.57921 126.835 0.853149 134.589 0.853149C140.027 0.853149 145.868 2.66583 144.76 10.269L144.357 12.988L135.697 14.4986L136.402 10.6718C136.905 8.00317 135.999 6.99612 134.438 6.99612C132.676 6.99612 132.071 8.30528 131.82 9.51373L131.568 10.7222C131.266 12.1824 131.568 13.6426 133.129 14.5993L138.365 17.7715C141.689 19.7856 142.545 23.0585 142.091 25.7271L141.437 29.4532C141.18 30.891 140.795 32.2652 140.16 33.484Z" fill="white"/>
</svg>
