<svg width="108" height="15" viewBox="0 0 108 15" fill="none" xmlns="http://www.w3.org/2000/svg">
<path d="M5.46926 8.46882C5.27038 8.46882 5.17094 8.36109 5.17094 8.14564V5.70933C5.17094 5.60989 5.1958 5.51873 5.24552 5.43586L7.35865 2.05486C7.44152 1.92227 7.54924 1.83112 7.68183 1.7814C7.81442 1.73168 7.93872 1.70682 8.05474 1.70682H8.47736C8.5768 1.70682 8.65138 1.74825 8.7011 1.83112C8.75082 1.91399 8.75911 1.99685 8.72596 2.07972L7.63211 4.51603C7.56582 4.69834 7.54096 4.83922 7.55753 4.93866C7.59068 5.02152 7.67355 5.07124 7.80613 5.08782L8.22876 5.11268C8.39449 5.12925 8.50222 5.17069 8.55194 5.23698C8.61824 5.2867 8.65138 5.37786 8.65138 5.51044V8.09591C8.65138 8.34452 8.54366 8.46882 8.3282 8.46882H5.46926ZM0.298324 8.46882C0.0994412 8.46882 0 8.36109 0 8.14564V5.70933C0 5.60989 0.0248603 5.51873 0.0745809 5.43586L2.21257 2.05486C2.27886 1.92227 2.3783 1.83112 2.51089 1.7814C2.64348 1.73168 2.76778 1.70682 2.88379 1.70682H3.30642C3.40586 1.70682 3.48044 1.74825 3.53016 1.83112C3.57988 1.91399 3.58817 1.99685 3.55502 2.07972L2.48603 4.51603C2.40316 4.69834 2.37002 4.83922 2.38659 4.93866C2.41974 5.02152 2.5026 5.07124 2.63519 5.08782L3.05782 5.11268C3.22355 5.12925 3.33128 5.17069 3.381 5.23698C3.44729 5.2867 3.48044 5.37786 3.48044 5.51044V8.09591C3.48044 8.34452 3.37271 8.46882 3.15726 8.46882H0.298324Z" fill="black"/>
<path d="M104.103 8.46882C104.004 8.46882 103.929 8.42738 103.88 8.34452C103.83 8.24508 103.822 8.15392 103.855 8.07105L104.949 5.63474C105.015 5.45244 105.032 5.31985 104.998 5.23698C104.982 5.15411 104.907 5.10439 104.775 5.08782L104.352 5.06296C104.203 5.04638 104.095 5.01324 104.029 4.96352C103.963 4.89722 103.929 4.79778 103.929 4.66519V2.05486C103.929 1.82283 104.037 1.70682 104.253 1.70682H107.112C107.31 1.70682 107.41 1.81455 107.41 2.03V4.46631C107.41 4.56575 107.385 4.65691 107.335 4.73978L105.222 8.12077C105.139 8.23679 105.032 8.32794 104.899 8.39424C104.783 8.44396 104.659 8.46882 104.526 8.46882H104.103ZM98.9326 8.46882C98.8331 8.46882 98.7585 8.42738 98.7088 8.34452C98.6591 8.24508 98.6508 8.15392 98.684 8.07105L99.7778 5.63474C99.8441 5.45244 99.8607 5.31985 99.8275 5.23698C99.811 5.15411 99.7364 5.10439 99.6038 5.08782L99.1812 5.06296C99.032 5.04638 98.9243 5.01324 98.858 4.96352C98.7917 4.89722 98.7585 4.79778 98.7585 4.66519V2.05486C98.7585 1.82283 98.8663 1.70682 99.0817 1.70682H101.941C102.14 1.70682 102.239 1.81455 102.239 2.03V4.46631C102.239 4.56575 102.214 4.65691 102.164 4.73978L100.051 8.12077C99.9684 8.23679 99.8607 8.32794 99.7281 8.39424C99.6121 8.44396 99.4878 8.46882 99.3552 8.46882H98.9326Z" fill="black"/>
<path d="M21.2788 0.715515L23.8394 5.29732L29.5656 6.03656L25.4222 9.601L26.4001 14.6366L21.2788 12.2579L16.1576 14.6366L17.1354 9.601L12.9921 6.03656L18.7182 5.29732L21.2788 0.715515Z" fill="black"/>
<path d="M37.8491 0.715515L40.4098 5.29732L46.1359 6.03656L41.9925 9.601L42.9704 14.6366L37.8491 12.2579L32.7279 14.6366L33.7058 9.601L29.5624 6.03656L35.2885 5.29732L37.8491 0.715515Z" fill="black"/>
<path d="M54.4273 0.715515L56.9879 5.29732L62.714 6.03656L58.5706 9.601L59.5485 14.6366L54.4273 12.2579L49.306 14.6366L50.2839 9.601L46.1405 6.03656L51.8667 5.29732L54.4273 0.715515Z" fill="black"/>
<path d="M70.9976 0.715515L73.5582 5.29732L79.2843 6.03656L75.141 9.601L76.1188 14.6366L70.9976 12.2579L65.8764 14.6366L66.8542 9.601L62.7108 6.03656L68.437 5.29732L70.9976 0.715515Z" fill="black"/>
<path d="M87.5757 1.56483L89.7746 5.49946C89.8386 5.614 89.9531 5.69145 90.0833 5.70825L94.8878 6.3285L91.4489 9.2869C91.3361 9.38391 91.284 9.53395 91.3123 9.67998L92.1355 13.919L87.7502 11.8821C87.6396 11.8307 87.5118 11.8307 87.4012 11.8821L83.0159 13.919L83.8391 9.67998C83.8674 9.53395 83.8153 9.38391 83.7025 9.2869L80.2636 6.3285L85.0681 5.70825C85.1983 5.69145 85.3128 5.614 85.3768 5.49946L87.5757 1.56483Z" stroke="black" stroke-width="0.828676" stroke-linecap="round" stroke-linejoin="round"/>
<path d="M87.5757 1.56483L89.7746 5.49946C89.778 5.50556 89.7816 5.51158 89.7853 5.5175L90.0984 6.0166L91.3174 9.70591L92.1355 13.919L87.7502 11.8821C87.6396 11.8307 87.5118 11.8307 87.4012 11.8821L83.0159 13.919L83.8391 9.67998C83.8674 9.53395 83.8153 9.38391 83.7025 9.2869L80.2636 6.3285L85.0681 5.70825C85.1983 5.69145 85.3128 5.614 85.3768 5.49946L87.5757 1.56483Z" fill="black" stroke="black" stroke-width="0.828676" stroke-linecap="round" stroke-linejoin="round"/>
</svg>
